<svg xmlns="http://www.w3.org/2000/svg" viewBox="0 0 681.08 225.24"><defs><style>.cls-1{fill:#231f20;}.cls-2,.cls-3{fill:none;stroke-miterlimit:10;}.cls-2{stroke:#231f20;}.cls-3{stroke:#fff;}</style></defs><g id="Layer_2" data-name="Layer 2"><g id="Layer_1-2" data-name="Layer 1"><path class="cls-1" d="M674.61,140.05H657.93c-1.28,2.75-3.75,4.94-8.15,4.94-5,0-9.16-3.11-9.71-9.8h35.45a38.13,38.13,0,0,0,.28-4.58c0-15.57-10.54-25.47-25.47-25.47-15.21,0-25.84,10.08-25.84,26.3s10.81,26.29,25.84,26.29c12.73,0,21.8-7.7,24.28-17.68m-24.46-22.36c5.22,0,9.62,3.21,9.62,8.8H640.16c.92-5.68,4.86-8.8,10-8.8m-59.1,21.53c0,13.29,7.42,17.78,18.05,17.78h8V143.71h-5.59c-3.48,0-4.76-1.28-4.76-4.3V118.88H617v-13H606.72V93.41H591.05v12.46h-6.23v13h6.23Zm-13.92,2.93c-.28-19.05-27.94-13.28-27.94-21.43,0-2.48,2-3.94,5.68-3.94,4.39,0,7,2.29,7.51,5.77h14.47c-1-10.08-8.33-17.41-21.53-17.41-13.37,0-20.79,7.15-20.79,15.85,0,18.78,27.85,12.83,27.85,21.07,0,2.29-2.11,4.13-6.14,4.13-4.31,0-7.51-2.39-7.88-6H532.88c.73,9.9,9.89,17.5,23.54,17.5,12.83,0,20.71-6.69,20.71-15.58m-70.36-10.71c0,8.15-5.22,12.64-11.18,12.64s-11.18-4.58-11.18-12.74,5.32-12.55,11.18-12.55,11.18,4.49,11.18,12.65m-38.3-.1c0,16.13,10,26.39,22.45,26.39,7.6,0,13-3.48,15.85-8V157h15.66V105.87H506.77v7.24c-2.75-4.49-8.16-8-15.76-8-12.55,0-22.54,10.08-22.54,26.2m-56.34-26.11h17V157h15.67V105.23h17V92.68H412.13Z"/><path class="cls-1" d="M383.27,149.3c0-4.86-3.75-8.61-9.25-8.61s-9.35,3.75-9.35,8.61c0,4.67,3.76,8.43,9.35,8.43s9.25-3.76,9.25-8.43"/><path class="cls-1" d="M341.31,133.27c0-8.8,4.31-11.36,11.73-11.36h4.3V105.32c-6.87,0-12.46,3.67-16,9.07v-8.52H325.65V157h15.66Zm-68.43,10.17V106.06h7.42c11.81,0,18.78,7,18.78,18.78s-7,18.6-18.78,18.6Zm8.42-50.76H257.21V157H281.3c20.53,0,33.72-13.1,33.72-32.16S301.83,92.68,281.3,92.68"/><path class="cls-2" d="M98.79,167.58a3,3,0,0,0-3,2.54c-.08,1.64,0,38.6,0,54.38q4.37.18,9.13.22l-3.29,0c0-15.59,0-52.48,0-54.5A2.83,2.83,0,0,0,98.79,167.58Z"/><path class="cls-2" d="M89,170a2.8,2.8,0,0,0-2.85-2.57,2.75,2.75,0,0,0-2.82,2.63l0,5.94,0,47.56c3.87.46,8,.76,12.47.95-2.29-.1-4.49-.22-6.62-.39l.15-43.91C89.18,176.8,89.17,173.39,89,170Z"/><path class="cls-2" d="M79.57,223c-1.2-.19-2.38-.39-3.53-.62C77.19,222.65,78.37,222.85,79.57,223Z"/><path class="cls-2" d="M109.06,38.47C56.21,38.47-7.27,84.05,17,150c18.3,49.72,31,67,59.05,72.45l-2.31-72.27c-.62-6.18,2.9-9.39,4.08-10.93s9.06-8.66,9.06-8.66c5.36-5.15,5.77-13.59,5.77-13.59l-.95-36.11h14.74s-1,28.27-.8,36.72a16.79,16.79,0,0,0,5.56,12.57l8,8.45c4,3,4.52,11.54,4.52,11.54l-1.94,74c-2.53.25-5.08.44-7.66.54.11-15,.36-53.3.28-54.47a2.84,2.84,0,0,0-5.64-.12c0,.61,0,35,0,54.68h.29c53.41,0,97.18-31.37,96.7-89.57S161.91,38.47,109.06,38.47Z"/><path class="cls-2" d="M83.28,223.55c-1.26-.16-2.49-.32-3.69-.51C80.79,223.23,82,223.39,83.28,223.55Z"/><path class="cls-2" d="M100.76,19.09a9,9,0,1,0-9-9,9,9,0,0,0,9,9"/><path class="cls-1" d="M86.15,167.42a2.75,2.75,0,0,0-2.82,2.63l0,5.94,0,43.32c1.9.09,3.85.15,5.87.19l.13-39.3c-.11-3.4-.12-6.81-.29-10.21A2.8,2.8,0,0,0,86.15,167.42Z"/><path class="cls-1" d="M101.66,170.18a2.83,2.83,0,0,0-2.87-2.6,3,3,0,0,0-3,2.54c-.07,1.48,0,32,0,49.46H97.4c1.41,0,2.81,0,4.21-.07C101.61,202.18,101.62,172,101.66,170.18Z"/><path class="cls-1" d="M102.73,51.46a7.61,7.61,0,1,0,5.37,2.23A7.53,7.53,0,0,0,102.73,51.46Z"/><path class="cls-1" d="M97.4,33.32C44.55,33.32-18.93,78.9,5.32,144.81c20.63,56.07,34.15,70.86,70.6,74l-2.2-68.68c-.62-6.18,2.9-9.39,4.08-10.93s9.06-8.66,9.06-8.66c5.36-5.15,5.77-13.59,5.77-13.59l-.95-36.11h14.74s-1,28.27-.8,36.72a16.79,16.79,0,0,0,5.56,12.57l8,8.45c4,3,4.52,11.54,4.52,11.54L122,217.23C163.59,208.94,194.51,179,194.1,130,193.62,71.82,150.25,33.32,97.4,33.32Zm5.33,34.33a8.6,8.6,0,1,1,8.6-8.6A8.6,8.6,0,0,1,102.73,67.65Z"/><path class="cls-1" d="M111.59,167.58a2.75,2.75,0,0,0-2.81,2.48c0,.55,0,29.07,0,49,1.82-.16,3.63-.35,5.42-.59.11-17.32.3-47.3.23-48.33A2.77,2.77,0,0,0,111.59,167.58Z"/><path class="cls-1" d="M97.15,18.06a9,9,0,1,0-9-9,9,9,0,0,0,9,9"/><path class="cls-2" d="M123.89,46.52a13.65,13.65,0,1,0-13.65-13.65,13.65,13.65,0,0,0,13.65,13.65"/><path class="cls-1" d="M119.17,43.86a13.65,13.65,0,1,0-13.65-13.65,13.65,13.65,0,0,0,13.65,13.65"/><path class="cls-1" d="M677.37,189a1.85,1.85,0,0,0,1.84,1.84,1.87,1.87,0,0,0,1.87-1.84,1.89,1.89,0,0,0-1.87-1.87,1.87,1.87,0,0,0-1.84,1.87m-17.74-6.23a8,8,0,0,0,8.07,8.05,11.39,11.39,0,0,0,5.58-1.46.44.44,0,0,0,.18-.36v-5.76a.42.42,0,0,0-.41-.43h-4.32a.41.41,0,0,0-.42.43v1.78a.41.41,0,0,0,.42.4h1.8v1.91a7,7,0,0,1-2.67.56,5.18,5.18,0,1,1,3.37-9.06.39.39,0,0,0,.59,0l1.39-1.46a.44.44,0,0,0,0-.63,8.54,8.54,0,0,0-5.49-2.09,8.08,8.08,0,0,0-8.07,8.12m-20.08,7.42a.44.44,0,0,0,.42.42h2a.42.42,0,0,0,.43-.42v-9.67h0l9.4,10.32h.54a.43.43,0,0,0,.43-.41V175.34a.45.45,0,0,0-.43-.43h-2.07a.43.43,0,0,0-.43.43v9.29h0l-9.35-9.94H640a.42.42,0,0,0-.42.4Zm-10.86,0a.44.44,0,0,0,.42.42h2.09a.44.44,0,0,0,.43-.42V175.34a.45.45,0,0,0-.43-.43h-2.09a.45.45,0,0,0-.42.43Zm-15.18,0a.42.42,0,0,0,.42.42h8.23a.42.42,0,0,0,.43-.42v-1.85a.42.42,0,0,0-.43-.42h-5.73V175.34a.45.45,0,0,0-.43-.43h-2.07a.43.43,0,0,0-.42.43Zm-10.86,0a.44.44,0,0,0,.42.42h2.09a.44.44,0,0,0,.43-.42V175.34a.45.45,0,0,0-.43-.43h-2.09a.45.45,0,0,0-.42.43Zm-16.51,0a.42.42,0,0,0,.43.42h2.07a.44.44,0,0,0,.42-.42v-5.69h5.56a.45.45,0,0,0,.43-.43v-1.84a.45.45,0,0,0-.43-.43h-5.56v-4.23h6.66a.43.43,0,0,0,.43-.43v-1.84a.43.43,0,0,0-.43-.43h-9.15a.43.43,0,0,0-.43.43Zm-20-7.42a5.16,5.16,0,1,1,5.15,5.15,5.2,5.2,0,0,1-5.15-5.15m-2.93,0a8.09,8.09,0,1,0,8.08-8.12,8,8,0,0,0-8.08,8.12m-14.73-.72v-4.48h3.67a2.24,2.24,0,0,1,2.23,2.18,2.3,2.3,0,0,1-2.23,2.3Zm-2.94,8.14a.42.42,0,0,0,.43.42H548a.44.44,0,0,0,.43-.42v-5.74H551l3,6a.38.38,0,0,0,.36.2h2.36A.42.42,0,0,0,557,190L554,184.29a5,5,0,0,0,3.33-4.54,4.87,4.87,0,0,0-4.9-4.84H546a.43.43,0,0,0-.43.43Zm-14.21-8v-4.52h2.61a2.24,2.24,0,0,1,2.31,2.18,2.32,2.32,0,0,1-2.31,2.34Zm-2.93,8a.42.42,0,0,0,.43.42h2.07a.45.45,0,0,0,.43-.42v-5.29h2.81a5,5,0,1,0,0-10h-5.29a.43.43,0,0,0-.43.43Zm-33.73,0a.42.42,0,0,0,.43.42h9.15a.42.42,0,0,0,.43-.42v-1.85a.42.42,0,0,0-.43-.42h-6.65V184h5.55a.43.43,0,0,0,.43-.43v-1.86a.44.44,0,0,0-.43-.43h-5.55v-3.69h6.65a.43.43,0,0,0,.43-.43v-1.84a.43.43,0,0,0-.43-.43h-9.15a.43.43,0,0,0-.43.43Zm-13,0a.44.44,0,0,0,.42.42h2.1a.44.44,0,0,0,.42-.42V177.61h3.44a.43.43,0,0,0,.43-.43v-1.84a.43.43,0,0,0-.43-.43h-9.82a.43.43,0,0,0-.43.43v1.84a.43.43,0,0,0,.43.43h3.44Zm-18.94-1.1a7.29,7.29,0,0,0,4.95,1.75c3.17,0,5.17-2.14,5.17-4.45,0-2.9-2.52-4.21-4.7-5.09-1.82-.74-2.65-1.46-2.65-2.51a1.8,1.8,0,0,1,2-1.58,7.37,7.37,0,0,1,3.12,1.24.59.59,0,0,0,.79-.27l.86-1.28a.57.57,0,0,0-.14-.75,8,8,0,0,0-4.5-1.5c-3.57,0-5.06,2.31-5.06,4.32,0,2.65,2.12,4,4.23,4.85,1.89.77,2.86,1.55,2.86,2.7a1.88,1.88,0,0,1-2.05,1.73,7.39,7.39,0,0,1-3.39-1.39.52.52,0,0,0-.77.16l-.81,1.39c-.2.36-.09.47.11.68M448,185.28l2.2-4.95h.07l2.25,4.95Zm-4.81,5.37h1.95a.68.68,0,0,0,.66-.45l1.1-2.42h6.72l1.1,2.42a.65.65,0,0,0,.66.45h1.95a.39.39,0,0,0,.38-.58l-6.92-15.13a.38.38,0,0,0-.38-.25h-.23a.4.4,0,0,0-.38.25l-7,15.13a.4.4,0,0,0,.39.58m-10.46-.42a.44.44,0,0,0,.43.42h2.09a.45.45,0,0,0,.43-.42V177.61h3.44a.42.42,0,0,0,.42-.43v-1.84a.43.43,0,0,0-.42-.43h-9.83a.43.43,0,0,0-.43.43v1.84a.43.43,0,0,0,.43.43h3.44Zm-39.15-7.42a8.06,8.06,0,0,0,8.12,8.07,7.73,7.73,0,0,0,5.46-2.18.43.43,0,0,0,0-.61l-1.39-1.44a.41.41,0,0,0-.56,0,5.37,5.37,0,0,1-3.44,1.28,5.22,5.22,0,0,1,0-10.43,5.3,5.3,0,0,1,3.46,1.33.36.36,0,0,0,.56,0l1.37-1.42a.42.42,0,0,0,0-.63,7.62,7.62,0,0,0-5.44-2.09,8.1,8.1,0,0,0-8.12,8.12m-9.71,7.42a.44.44,0,0,0,.42.42h2.09a.44.44,0,0,0,.43-.42V175.34a.45.45,0,0,0-.43-.43h-2.09a.45.45,0,0,0-.42.43Zm-16.51,0a.42.42,0,0,0,.43.42h2.07a.44.44,0,0,0,.42-.42v-5.69h5.56a.45.45,0,0,0,.43-.43v-1.84a.45.45,0,0,0-.43-.43h-5.56v-4.23h6.66a.43.43,0,0,0,.43-.43v-1.84a.43.43,0,0,0-.43-.43h-9.15a.43.43,0,0,0-.43.43Zm-10.86,0a.44.44,0,0,0,.43.42H359a.45.45,0,0,0,.43-.42V175.34a.45.45,0,0,0-.43-.43h-2.09a.45.45,0,0,0-.43.43Zm-13,0a.45.45,0,0,0,.43.42H346a.44.44,0,0,0,.43-.42V177.61h3.44a.43.43,0,0,0,.43-.43v-1.84a.43.43,0,0,0-.43-.43h-9.83a.43.43,0,0,0-.42.43v1.84a.42.42,0,0,0,.42.43h3.44Zm-23.32,0a.45.45,0,0,0,.43.42h2.05a.42.42,0,0,0,.43-.42v-9.67h0l9.4,10.32h.54a.43.43,0,0,0,.43-.41V175.34a.45.45,0,0,0-.43-.43H331a.43.43,0,0,0-.43.43v9.29h0l-9.36-9.94h-.56a.43.43,0,0,0-.43.4Zm-17,0a.42.42,0,0,0,.43.42h9.15a.42.42,0,0,0,.43-.42v-1.85a.42.42,0,0,0-.43-.42h-6.66V184h5.56a.42.42,0,0,0,.42-.43v-1.86a.44.44,0,0,0-.42-.43h-5.56v-3.69h6.66a.43.43,0,0,0,.43-.43v-1.84a.43.43,0,0,0-.43-.43h-9.15a.43.43,0,0,0-.43.43Zm-10.86,0a.44.44,0,0,0,.43.42h2.09a.44.44,0,0,0,.42-.42V175.34a.45.45,0,0,0-.42-.43h-2.09a.45.45,0,0,0-.43.43Zm-20.35-7.42a8.06,8.06,0,0,0,8.12,8.07,7.73,7.73,0,0,0,5.46-2.18.43.43,0,0,0,0-.61l-1.39-1.44a.41.41,0,0,0-.56,0,5.37,5.37,0,0,1-3.44,1.28,5.22,5.22,0,0,1,0-10.43,5.31,5.31,0,0,1,3.47,1.33.36.36,0,0,0,.56,0l1.37-1.42a.42.42,0,0,0,0-.63,7.62,7.62,0,0,0-5.44-2.09,8.1,8.1,0,0,0-8.12,8.12m-15.68,6.32a7.29,7.29,0,0,0,4.95,1.75c3.17,0,5.17-2.14,5.17-4.45,0-2.9-2.51-4.21-4.7-5.09-1.82-.74-2.65-1.46-2.65-2.51a1.8,1.8,0,0,1,2-1.58,7.37,7.37,0,0,1,3.12,1.24.59.59,0,0,0,.79-.27l.86-1.28a.57.57,0,0,0-.14-.75,8,8,0,0,0-4.5-1.5c-3.57,0-5.06,2.31-5.06,4.32,0,2.65,2.12,4,4.23,4.85,1.89.77,2.86,1.55,2.86,2.7a1.88,1.88,0,0,1-2.05,1.73,7.39,7.39,0,0,1-3.39-1.39.52.52,0,0,0-.77.16l-.81,1.39c-.2.36-.09.47.11.68"/><line class="cls-3" x1="108.77" y1="224.74" x2="104.9" y2="224.72"/></g></g></svg>